<svg xmlns="http://www.w3.org/2000/svg" width="256" height="256" viewBox="0 0 100 100"><rect width="100" height="100" rx="0" fill="#276ec6"></rect><path d="M46.27 21.56L46.27 78.44L38.73 78.44L38.73 52.15L10.06 52.15L10.06 78.44L2.56 78.44L2.56 21.56L10.06 21.56L10.06 46.02L38.73 46.02L38.73 21.56L46.27 21.56ZM76.35 53.09L76.35 53.09Q66.70 50.31 62.30 46.27Q57.91 42.23 57.91 36.29L57.91 36.29Q57.91 29.57 63.28 25.18Q68.65 20.78 77.25 20.78L77.25 20.78Q83.11 20.78 87.70 23.05Q92.29 25.31 94.80 29.30Q97.32 33.28 97.32 38.01L97.32 38.01L89.79 38.01Q89.79 32.85 86.50 29.90Q83.22 26.95 77.25 26.95L77.25 26.95Q71.70 26.95 68.59 29.39Q65.49 31.84 65.49 36.17L65.49 36.17Q65.49 39.65 68.44 42.05Q71.39 44.45 78.48 46.45Q85.57 48.44 89.57 50.84Q93.57 53.24 95.51 56.45Q97.44 59.65 97.44 63.98L97.44 63.98Q97.44 70.90 92.05 75.06Q86.66 79.22 77.64 79.22L77.64 79.22Q71.78 79.22 66.70 76.97Q61.62 74.73 58.87 70.82Q56.11 66.91 56.11 61.95L56.11 61.95L63.65 61.95Q63.65 67.11 67.46 70.10Q71.27 73.09 77.64 73.09L77.64 73.09Q83.57 73.09 86.74 70.66Q89.90 68.24 89.90 64.06Q89.90 59.88 86.97 57.60Q84.04 55.31 76.35 53.09Z" fill="#fff"></path></svg>